<svg width="294" height="184" viewBox="0 0 294 184" fill="none" xmlns="http://www.w3.org/2000/svg">
<path fill-rule="evenodd" clip-rule="evenodd" d="M136 40C136 49.6078 132.613 58.4245 126.967 65.3208L146.801 85.0707L166.634 65.3208C160.989 58.4245 157.602 49.6078 157.602 40C157.602 17.9086 175.51 0 197.601 0C219.692 0 237.6 17.9086 237.6 40C237.6 62.0914 219.692 80 197.601 80C187.999 80 179.187 76.6165 172.292 70.9766L152.47 90.7155L158.941 97.159C168.808 94.3292 175.294 97.5714 175.294 97.5714L224.808 147.071C227.438 149.7 247.661 148.42 260.771 147.59C265.294 147.304 268.971 147.071 270.786 147.071C277.86 147.071 288.47 132.929 292.007 125.857C295.543 118.786 293.616 140 292.007 143.536C290.397 147.071 256.639 182.429 249.566 182.429C247.948 182.429 244.11 182.614 239.067 182.857C222.063 183.676 191.36 185.156 185.904 182.429C178.831 178.893 147 161.214 147 154.143C147 161.214 115.169 178.893 108.096 182.429C102.64 185.156 71.9376 183.676 54.933 182.857H54.9326L54.932 182.856C49.8898 182.614 46.0522 182.429 44.4344 182.429C37.3608 182.429 3.6032 147.071 1.99346 143.536C0.383713 140 -1.54329 118.786 1.99346 125.857C5.5302 132.929 16.1404 147.071 23.2139 147.071C25.0286 147.071 28.7053 147.304 33.2291 147.59H33.2294H33.2295C46.3394 148.42 66.5622 149.7 69.1916 147.071L118.706 97.5714C118.706 97.5714 125.057 94.3971 134.749 97.0717L141.132 90.7156L121.309 70.9766C114.414 76.6165 105.602 80 96 80C73.9086 80 56 62.0914 56 40C56 17.9086 73.9086 0 96 0C118.091 0 136 17.9086 136 40ZM147 104.643C147 104.643 147 102.817 150.936 100.478L146.801 96.3604L142.813 100.331C147 102.741 147 104.643 147 104.643ZM64 40C64 57.6731 78.3269 72 96 72C113.673 72 128 57.6731 128 40C128 22.3269 113.673 8 96 8C78.3269 8 64 22.3269 64 40ZM229.6 40C229.6 57.6731 215.274 72 197.601 72C179.928 72 165.601 57.6731 165.601 40C165.601 22.3269 179.928 8 197.601 8C215.274 8 229.6 22.3269 229.6 40Z" fill="white"/>
</svg>
