<svg width="61" height="38" viewBox="0 0 61 38" fill="none" xmlns="http://www.w3.org/2000/svg">
<path fill-rule="evenodd" clip-rule="evenodd" d="M28.0869 8.26086C28.0869 10.2451 27.3873 12.0659 26.2213 13.4901L30.3176 17.569L34.4136 13.4902C33.2477 12.0659 32.5481 10.2451 32.5481 8.26086C32.5481 3.69851 36.2466 0 40.8088 0C45.3711 0 49.0695 3.69851 49.0695 8.26086C49.0695 12.8232 45.3711 16.5217 40.8088 16.5217C38.8258 16.5217 37.006 15.823 35.5821 14.6582L31.4883 18.7347L32.8247 20.0655C34.8624 19.4812 36.2019 20.1507 36.2019 20.1507L46.4277 30.3736C46.9708 30.9164 51.1472 30.6521 53.8547 30.4808C54.789 30.4216 55.5483 30.3736 55.9231 30.3736C57.3839 30.3736 59.5752 27.4527 60.3056 25.9924C61.036 24.532 60.638 28.9132 60.3056 29.6434C59.9732 30.3736 53.0015 37.6756 51.5406 37.6756C51.2065 37.6756 50.4139 37.7138 49.3725 37.764C45.8607 37.9332 39.5199 38.2388 38.3932 37.6756C36.9334 36.9459 30.3683 33.2997 30.3586 31.8372C30.349 33.2997 23.7839 36.9459 22.3241 37.6756C21.1974 38.2388 14.8566 37.9332 11.3448 37.764H11.3448C10.3034 37.7138 9.51077 37.6756 9.17666 37.6756C7.71582 37.6756 0.744138 30.3736 0.411691 29.6434C0.0792449 28.9132 -0.318722 24.532 0.411691 25.9924C1.14211 27.4527 3.33335 30.3736 4.79417 30.3736C5.16895 30.3736 5.9283 30.4216 6.86259 30.4808C9.57006 30.6521 13.7465 30.9164 14.2896 30.3736L24.5154 20.1507C24.5154 20.1507 25.8268 19.4952 27.8285 20.0475L29.1468 18.7348L25.0529 14.6582C23.629 15.8229 21.8091 16.5217 19.826 16.5217C15.2636 16.5217 11.5651 12.8232 11.5651 8.26086C11.5651 3.69851 15.2636 0 19.826 0C24.3883 0 28.0869 3.69851 28.0869 8.26086ZM30.3586 21.6104C30.3592 21.592 30.3792 21.2219 31.1716 20.751L30.3176 19.9005L29.4939 20.7207C30.3372 21.206 30.3581 21.5916 30.3586 21.6104ZM13.2173 8.26086C13.2173 11.9107 16.1761 14.8695 19.826 14.8695C23.4759 14.8695 26.4347 11.9107 26.4347 8.26086C26.4347 4.61098 23.4759 1.65217 19.826 1.65217C16.1761 1.65217 13.2173 4.61098 13.2173 8.26086ZM47.4174 8.26086C47.4174 11.9107 44.4586 14.8695 40.8088 14.8695C37.159 14.8695 34.2003 11.9107 34.2003 8.26086C34.2003 4.61098 37.159 1.65217 40.8088 1.65217C44.4586 1.65217 47.4174 4.61098 47.4174 8.26086Z" fill="#483D8B"/>
</svg>
